<svg width="6" height="8" viewBox="0 0 6 8" fill="none" xmlns="http://www.w3.org/2000/svg">
<path id="Vector" d="M0 0.306235V7.18025C0.000950153 7.23511 0.0153709 7.28872 0.0418079 7.33569C0.068245 7.38266 0.105764 7.42133 0.150581 7.44779C0.195399 7.47425 0.245931 7.48758 0.297082 7.48642C0.348233 7.48526 0.398195 7.46966 0.441929 7.44119L5.68252 4.00418C5.72438 3.97701 5.759 3.93872 5.78302 3.89301C5.80705 3.8473 5.81967 3.79571 5.81967 3.74324C5.81967 3.69077 5.80705 3.63919 5.78302 3.59348C5.759 3.54777 5.72438 3.50948 5.68252 3.48231L0.441929 0.0453C0.398195 0.0168303 0.348233 0.00122924 0.297082 6.97127e-05C0.245931 -0.00108981 0.195399 0.0122333 0.150581 0.0386957C0.105764 0.065158 0.068245 0.103824 0.0418079 0.150795C0.0153709 0.197766 0.000950153 0.251381 0 0.306235Z" fill="white"/>
</svg>
