<svg width="59" height="60" viewBox="0 0 59 60" fill="none" xmlns="http://www.w3.org/2000/svg">
<g id="Group 26">
<path id="Vector" d="M47.9375 9.23926H11.0625C10.0442 9.23926 9.21875 10.0666 9.21875 11.0871V48.0439C9.21875 49.0645 10.0442 49.8918 11.0625 49.8918H47.9375C48.9558 49.8918 49.7812 49.0645 49.7812 48.0439V11.0871C49.7812 10.0666 48.9558 9.23926 47.9375 9.23926Z" stroke="white" stroke-width="2" stroke-linecap="round" stroke-linejoin="round"/>
<path id="Vector_2" d="M40.5625 5.54346V12.9348" stroke="white" stroke-width="2" stroke-linecap="round" stroke-linejoin="round"/>
<path id="Vector_3" d="M18.4375 5.54346V12.9348" stroke="white" stroke-width="2" stroke-linecap="round" stroke-linejoin="round"/>
<path id="Vector_4" d="M9.21875 20.3262H49.7812" stroke="white" stroke-width="2" stroke-linecap="round" stroke-linejoin="round"/>
<path id="Vector_5" d="M20.2812 29.5654L23.9688 27.7175V42.5003" stroke="#FB5567" stroke-width="2" stroke-linecap="round" stroke-linejoin="round"/>
<path id="Vector_6" d="M31.837 29.5654C32.0893 29.13 32.4277 28.7509 32.8315 28.4513C33.2352 28.1517 33.6958 27.9379 34.185 27.8232C34.6741 27.7084 35.1815 27.695 35.6761 27.7838C36.1706 27.8726 36.6418 28.0617 37.0607 28.3396C37.4797 28.6175 37.8376 28.9782 38.1124 29.3997C38.3872 29.8212 38.5733 30.2945 38.659 30.7906C38.7448 31.2867 38.7285 31.7951 38.6112 32.2847C38.4938 32.7743 38.2779 33.2347 37.9766 33.6376L31.3438 42.5003H38.7188" stroke="#FB5567" stroke-width="2" stroke-linecap="round" stroke-linejoin="round"/>
</g>
</svg>
