<svg width="32" height="32" viewBox="0 0 32 32" fill="none" xmlns="http://www.w3.org/2000/svg">
<g id="CalendarStar" clip-path="url(#clip0_230_84)">
<path id="Vector" d="M26 5H6C5.44772 5 5 5.44772 5 6V26C5 26.5523 5.44772 27 6 27H26C26.5523 27 27 26.5523 27 26V6C27 5.44772 26.5523 5 26 5Z" stroke="white" stroke-width="2" stroke-linecap="round" stroke-linejoin="round"/>
<path id="Vector_2" d="M22 3V7" stroke="white" stroke-width="2" stroke-linecap="round" stroke-linejoin="round"/>
<path id="Vector_3" d="M10 3V7" stroke="white" stroke-width="2" stroke-linecap="round" stroke-linejoin="round"/>
<path id="Vector_4" d="M16 19.8175L19.7087 22L18.7 17.9263L22 15.2013L17.6688 14.8675L16 11L14.3313 14.8675L10 15.2013L13.3 17.9263L12.2913 22L16 19.8175Z" stroke="#FB5567" stroke-width="2" stroke-linecap="round" stroke-linejoin="round"/>
</g>
<defs>
<clipPath id="clip0_230_84">
<rect width="32" height="32" fill="white"/>
</clipPath>
</defs>
</svg>
