<svg width="25" height="25" viewBox="0 0 25 25" fill="none" xmlns="http://www.w3.org/2000/svg">
<g id="info">
<path id="Vector" d="M12.5 24C18.8513 24 24 18.8513 24 12.5C24 6.14873 18.8513 1 12.5 1C6.14873 1 1 6.14873 1 12.5C1 18.8513 6.14873 24 12.5 24Z" stroke="white" stroke-width="2" stroke-linecap="round" stroke-linejoin="round"/>
<path id="Vector_2" d="M11.5417 11.5417C11.7958 11.5417 12.0396 11.6427 12.2193 11.8224C12.399 12.0022 12.5 12.2459 12.5 12.5001V17.2917C12.5 17.5459 12.601 17.7897 12.7807 17.9694C12.9604 18.1491 13.2042 18.2501 13.4583 18.2501" stroke="white" stroke-width="2" stroke-linecap="round" stroke-linejoin="round"/>
<path id="Vector_3" d="M12.0208 8.66675C12.8147 8.66675 13.4583 8.02316 13.4583 7.22925C13.4583 6.43534 12.8147 5.79175 12.0208 5.79175C11.2269 5.79175 10.5833 6.43534 10.5833 7.22925C10.5833 8.02316 11.2269 8.66675 12.0208 8.66675Z" fill="white"/>
</g>
</svg>
