<svg width="14" height="14" viewBox="0 0 14 14" fill="none" xmlns="http://www.w3.org/2000/svg">
<path id="LUPA" d="M13.2173 12.6469L10.0913 9.52153C10.9973 8.43378 11.4491 7.0386 11.3527 5.62622C11.2563 4.21384 10.619 2.893 9.57357 1.93849C8.5281 0.98397 7.15488 0.469257 5.73957 0.501422C4.32427 0.533587 2.97586 1.11015 1.97483 2.11118C0.973801 3.11221 0.397234 4.46063 0.365069 5.87593C0.332904 7.29123 0.847617 8.66445 1.80213 9.70992C2.75665 10.7554 4.07748 11.3926 5.48986 11.489C6.90224 11.5855 8.29743 11.1337 9.38518 10.2276L12.5105 13.3536C12.5569 13.4 12.612 13.4368 12.6727 13.462C12.7333 13.4871 12.7983 13.5 12.8639 13.5C12.9295 13.5 12.9945 13.4871 13.0552 13.462C13.1158 13.4368 13.1709 13.4 13.2173 13.3536C13.2637 13.3072 13.3005 13.2521 13.3256 13.1915C13.3507 13.1309 13.3636 13.0659 13.3636 13.0003C13.3636 12.9346 13.3507 12.8697 13.3256 12.809C13.3005 12.7484 13.2637 12.6933 13.2173 12.6469ZM1.37636 6.00784C1.37636 5.11879 1.64 4.2497 2.13393 3.51048C2.62786 2.77126 3.3299 2.19511 4.15128 1.85489C4.97266 1.51466 5.87648 1.42564 6.74845 1.59909C7.62042 1.77253 8.42137 2.20065 9.05002 2.82931C9.67868 3.45796 10.1068 4.25892 10.2802 5.13089C10.4537 6.00286 10.3647 6.90668 10.0244 7.72805C9.68422 8.54943 9.10807 9.25147 8.36885 9.74541C7.62963 10.2393 6.76054 10.503 5.87149 10.503C4.67971 10.5016 3.53713 10.0276 2.69442 9.18492C1.8517 8.34221 1.37769 7.19962 1.37636 6.00784Z" fill="white"/>
</svg>
