<svg width="16" height="14" viewBox="0 0 16 14" fill="none" xmlns="http://www.w3.org/2000/svg">
<path id="MECHAN" d="M14.4615 0.5H1.53847C1.22689 0.5 0.928068 0.623776 0.707746 0.844098C0.487423 1.06442 0.363647 1.36324 0.363647 1.67483V12.2483C0.363647 12.5598 0.487423 12.8587 0.707746 13.079C0.928068 13.2993 1.22689 13.4231 1.53847 13.4231H14.4615C14.7731 13.4231 15.072 13.2993 15.2923 13.079C15.5126 12.8587 15.6364 12.5598 15.6364 12.2483V1.67483C15.6364 1.36324 15.5126 1.06442 15.2923 0.844098C15.072 0.623776 14.7731 0.5 14.4615 0.5ZM14.4615 12.2483H1.53847V1.67483H14.4615V12.2483ZM11.5245 4.02448C11.5245 4.95922 11.1532 5.85569 10.4922 6.51666C9.83122 7.17762 8.93476 7.54895 8.00001 7.54895C7.06526 7.54895 6.1688 7.17762 5.50783 6.51666C4.84686 5.85569 4.47554 4.95922 4.47554 4.02448C4.47554 3.86868 4.53742 3.71927 4.64758 3.60911C4.75775 3.49895 4.90716 3.43706 5.06295 3.43706C5.21874 3.43706 5.36815 3.49895 5.47831 3.60911C5.58847 3.71927 5.65036 3.86868 5.65036 4.02448C5.65036 4.64764 5.89791 5.24528 6.33856 5.68593C6.7792 6.12657 7.37685 6.37413 8.00001 6.37413C8.62318 6.37413 9.22082 6.12657 9.66146 5.68593C10.1021 5.24528 10.3497 4.64764 10.3497 4.02448C10.3497 3.86868 10.4115 3.71927 10.5217 3.60911C10.6319 3.49895 10.7813 3.43706 10.9371 3.43706C11.0929 3.43706 11.2423 3.49895 11.3524 3.60911C11.4626 3.71927 11.5245 3.86868 11.5245 4.02448Z" fill="white"/>
</svg>
