<svg width="11" height="10" viewBox="0 0 11 10" fill="none" xmlns="http://www.w3.org/2000/svg">
<path id="Vector" d="M5.50137 8.25617L8.39622 9.93901C8.47133 9.98211 8.55827 10.0032 8.64605 9.99961C8.73384 9.99601 8.81852 9.9679 8.88941 9.91882C8.96029 9.86974 9.0142 9.8019 9.04431 9.72387C9.07442 9.64583 9.07938 9.56112 9.05857 9.48042L8.27137 6.34029L10.8477 4.23987C10.9134 4.18535 10.9608 4.11383 10.984 4.03416C11.0072 3.95448 11.0051 3.87013 10.9782 3.79152C10.9512 3.7129 10.9005 3.64348 10.8323 3.5918C10.7641 3.54012 10.6814 3.50846 10.5943 3.50073L7.21331 3.24067L5.91084 0.26008C5.87764 0.183184 5.82096 0.11738 5.74803 0.0710588C5.6751 0.0247379 5.58924 0 5.50137 0C5.41351 0 5.32765 0.0247379 5.25472 0.0710588C5.18179 0.11738 5.12511 0.183184 5.09191 0.26008L3.78944 3.24067L0.408412 3.50073C0.320787 3.508 0.237371 3.53952 0.168587 3.59135C0.0998031 3.64318 0.0487008 3.71302 0.0216647 3.79215C-0.00537137 3.87128 -0.00714247 3.95618 0.0165728 4.03626C0.0402881 4.11633 0.0884381 4.18802 0.155007 4.24237L2.73138 6.34279L1.94418 9.48042C1.92337 9.56112 1.92834 9.64583 1.95844 9.72387C1.98855 9.8019 2.04246 9.86974 2.11334 9.91882C2.18423 9.9679 2.26891 9.99601 2.3567 9.99961C2.44448 10.0032 2.53142 9.98211 2.60653 9.93901L5.50137 8.25617Z" fill="#FB5567"/>
</svg>
