<svg width="29" height="47" viewBox="0 0 29 47" fill="none" xmlns="http://www.w3.org/2000/svg">
<path d="M29 47L14.5 36.7826L0 47V2.04348C0 1.50151 0.19096 0.981748 0.530869 0.598521C0.870779 0.215295 1.3318 0 1.8125 0H27.1875C27.6682 0 28.1292 0.215295 28.4691 0.598521C28.809 0.981748 29 1.50151 29 2.04348V47Z" fill="white"/>
<path d="M20.2375 17.6641C21.0344 17.6641 21.7661 17.8203 22.4328 18.1328C23.1047 18.4401 23.688 18.8646 24.1828 19.4062C24.6776 19.9427 25.0604 20.5625 25.3312 21.2656C25.6021 21.9635 25.7375 22.7057 25.7375 23.4922C25.7375 24.2786 25.6021 25.0182 25.3312 25.7109C25.0656 26.3984 24.688 27.0052 24.1984 27.5312C23.7088 28.0573 23.1281 28.4688 22.4562 28.7656C21.7896 29.0625 21.0526 29.2109 20.2453 29.2109C19.4224 29.2109 18.675 29.0625 18.0031 28.7656C17.3312 28.4635 16.7531 28.0495 16.2687 27.5234C15.7896 26.9922 15.4198 26.3802 15.1594 25.6875C14.8989 24.9896 14.7687 24.2422 14.7687 23.4453C14.7687 22.6693 14.9042 21.9349 15.175 21.2422C15.451 20.5495 15.8338 19.9349 16.3234 19.3984C16.8182 18.8568 17.3963 18.4323 18.0578 18.125C18.7245 17.8177 19.451 17.6641 20.2375 17.6641ZM20.2687 19.25C19.4979 19.25 18.8156 19.4505 18.2219 19.8516C17.6333 20.2526 17.1698 20.7839 16.8312 21.4453C16.4979 22.1016 16.3312 22.8203 16.3312 23.6016C16.3312 24.1328 16.4328 24.6406 16.6359 25.125C16.8391 25.6094 17.1203 26.0417 17.4797 26.4219C17.8391 26.7969 18.2531 27.0938 18.7219 27.3125C19.1958 27.526 19.701 27.6328 20.2375 27.6328C20.7739 27.6328 21.2792 27.5208 21.7531 27.2969C22.2323 27.0729 22.6542 26.7708 23.0187 26.3906C23.3885 26.0104 23.6776 25.5833 23.8859 25.1094C24.0943 24.6302 24.1984 24.1406 24.1984 23.6406C24.1984 22.8333 24.0213 22.099 23.6672 21.4375C23.3182 20.7708 22.8469 20.2396 22.2531 19.8438C21.6594 19.4479 20.9979 19.25 20.2687 19.25Z" fill="#FB5567"/>
<path d="M3.19531 18.5312C3.19531 18.349 3.27083 18.1823 3.42188 18.0312C3.57812 17.8802 3.75 17.8047 3.9375 17.8047C4.3125 17.8047 4.5651 17.9609 4.69531 18.2734L8.46875 26.8516L11.8672 18.1875C11.9922 17.8594 12.2474 17.6953 12.6328 17.6953C12.8255 17.6953 12.9974 17.7708 13.1484 17.9219C13.2995 18.0677 13.375 18.2344 13.375 18.4219C13.375 18.5677 13.3568 18.6875 13.3203 18.7812L9.24219 29.125C9.1901 29.2552 9.09635 29.3698 8.96094 29.4688C8.83073 29.5729 8.68229 29.625 8.51562 29.625C8.1875 29.625 7.95052 29.4688 7.80469 29.1562L3.26562 18.9141C3.21875 18.8203 3.19531 18.6927 3.19531 18.5312Z" fill="#FB5567"/>
</svg>
